<mxfile host="app.diagrams.net" agent="Mozilla/5.0 (Windows NT 10.0; Win64; x64) AppleWebKit/537.36 (KHTML, like Gecko) Chrome/139.0.0.0 Safari/537.36" version="28.1.0">
  <diagram name="Página-1" id="fHbUGQqs2-geogwl2rBB">
    <mxGraphModel dx="1426" dy="743" grid="1" gridSize="10" guides="1" tooltips="1" connect="1" arrows="1" fold="1" page="1" pageScale="1" pageWidth="827" pageHeight="1169" math="0" shadow="0">
      <root>
        <mxCell id="0" />
        <mxCell id="1" parent="0" />
        <mxCell id="F4Bcy7MZoGlN8Kw7cCW7-20" value="&lt;p style=&quot;margin:0px;margin-top:6px;text-align:center;&quot;&gt;&lt;br&gt;&lt;/p&gt;" style="align=left;overflow=fill;html=1;dropTarget=0;whiteSpace=wrap;fillColor=#f5f5f5;fontColor=#333333;strokeColor=#666666;" vertex="1" parent="1">
          <mxGeometry x="430" y="70" width="200" height="170" as="geometry" />
        </mxCell>
        <mxCell id="F4Bcy7MZoGlN8Kw7cCW7-21" value="" style="shape=component;jettyWidth=8;jettyHeight=4;" vertex="1" parent="F4Bcy7MZoGlN8Kw7cCW7-20">
          <mxGeometry x="1" width="20" height="20" relative="1" as="geometry">
            <mxPoint x="-24" y="4" as="offset" />
          </mxGeometry>
        </mxCell>
        <mxCell id="F4Bcy7MZoGlN8Kw7cCW7-28" style="edgeStyle=orthogonalEdgeStyle;rounded=0;orthogonalLoop=1;jettySize=auto;html=1;entryX=1;entryY=0.5;entryDx=0;entryDy=0;dashed=1;" edge="1" parent="1" source="F4Bcy7MZoGlN8Kw7cCW7-2" target="F4Bcy7MZoGlN8Kw7cCW7-8">
          <mxGeometry relative="1" as="geometry">
            <Array as="points">
              <mxPoint x="395" y="210" />
              <mxPoint x="395" y="330" />
            </Array>
          </mxGeometry>
        </mxCell>
        <mxCell id="F4Bcy7MZoGlN8Kw7cCW7-2" value="LeadCreatePlugin" style="shape=module;align=left;spacingLeft=20;align=center;verticalAlign=top;whiteSpace=wrap;html=1;fillColor=#dae8fc;strokeColor=#6c8ebf;" vertex="1" parent="1">
          <mxGeometry x="450" y="170" width="150" height="50" as="geometry" />
        </mxCell>
        <mxCell id="F4Bcy7MZoGlN8Kw7cCW7-3" value="RankingValidatePlugin" style="shape=module;align=left;spacingLeft=20;align=center;verticalAlign=top;whiteSpace=wrap;html=1;fillColor=#dae8fc;strokeColor=#6c8ebf;" vertex="1" parent="1">
          <mxGeometry x="450" y="95" width="150" height="50" as="geometry" />
        </mxCell>
        <mxCell id="F4Bcy7MZoGlN8Kw7cCW7-8" value="Historial de asignaciones" style="swimlane;fontStyle=0;childLayout=stackLayout;horizontal=1;startSize=26;fillColor=#fff2cc;horizontalStack=0;resizeParent=1;resizeParentMax=0;resizeLast=0;collapsible=1;marginBottom=0;whiteSpace=wrap;html=1;strokeColor=#d6b656;gradientColor=none;" vertex="1" parent="1">
          <mxGeometry x="180" y="280" width="160" height="100" as="geometry" />
        </mxCell>
        <mxCell id="F4Bcy7MZoGlN8Kw7cCW7-9" value="&lt;div&gt;&lt;i&gt;+Cliente potencial&lt;br&gt;+Asesor&lt;br&gt;+Fecha asignación&lt;br&gt;+Num. sec día&lt;br&gt;&lt;/i&gt;&lt;/div&gt;" style="text;strokeColor=#d6b656;fillColor=#fff2cc;align=left;verticalAlign=top;spacingLeft=4;spacingRight=4;overflow=hidden;rotatable=0;points=[[0,0.5],[1,0.5]];portConstraint=eastwest;whiteSpace=wrap;html=1;gradientColor=none;" vertex="1" parent="F4Bcy7MZoGlN8Kw7cCW7-8">
          <mxGeometry y="26" width="160" height="74" as="geometry" />
        </mxCell>
        <mxCell id="F4Bcy7MZoGlN8Kw7cCW7-12" value="Ranking de asesores" style="swimlane;fontStyle=0;childLayout=stackLayout;horizontal=1;startSize=26;fillColor=#fff2cc;horizontalStack=0;resizeParent=1;resizeParentMax=0;resizeLast=0;collapsible=1;marginBottom=0;whiteSpace=wrap;html=1;strokeColor=#d6b656;gradientColor=none;" vertex="1" parent="1">
          <mxGeometry x="140" y="90" width="160" height="110" as="geometry" />
        </mxCell>
        <mxCell id="F4Bcy7MZoGlN8Kw7cCW7-13" value="&lt;i&gt;+Asesor comercial (lookup Usuario)&lt;br&gt;+Posición ranking (optionsetvalue)&lt;br&gt;+Estado (statecode)&lt;/i&gt;" style="text;strokeColor=#d6b656;fillColor=#fff2cc;align=left;verticalAlign=top;spacingLeft=4;spacingRight=4;overflow=hidden;rotatable=0;points=[[0,0.5],[1,0.5]];portConstraint=eastwest;whiteSpace=wrap;html=1;gradientColor=none;" vertex="1" parent="F4Bcy7MZoGlN8Kw7cCW7-12">
          <mxGeometry y="26" width="160" height="84" as="geometry" />
        </mxCell>
        <mxCell id="F4Bcy7MZoGlN8Kw7cCW7-22" style="edgeStyle=orthogonalEdgeStyle;rounded=0;orthogonalLoop=1;jettySize=auto;html=1;" edge="1" parent="1" source="F4Bcy7MZoGlN8Kw7cCW7-14" target="F4Bcy7MZoGlN8Kw7cCW7-2">
          <mxGeometry relative="1" as="geometry" />
        </mxCell>
        <mxCell id="F4Bcy7MZoGlN8Kw7cCW7-23" value="&lt;b&gt;PostOperation&lt;br&gt;(Create)&lt;/b&gt;" style="edgeLabel;html=1;align=center;verticalAlign=middle;resizable=0;points=[];" vertex="1" connectable="0" parent="F4Bcy7MZoGlN8Kw7cCW7-22">
          <mxGeometry x="-0.26" y="3" relative="1" as="geometry">
            <mxPoint x="48" as="offset" />
          </mxGeometry>
        </mxCell>
        <mxCell id="F4Bcy7MZoGlN8Kw7cCW7-14" value="Cliente potencial" style="swimlane;fontStyle=0;childLayout=stackLayout;horizontal=1;startSize=26;fillColor=#fff2cc;horizontalStack=0;resizeParent=1;resizeParentMax=0;resizeLast=0;collapsible=1;marginBottom=0;whiteSpace=wrap;html=1;strokeColor=#d6b656;gradientColor=none;" vertex="1" parent="1">
          <mxGeometry x="445" y="320" width="160" height="90" as="geometry" />
        </mxCell>
        <mxCell id="F4Bcy7MZoGlN8Kw7cCW7-15" value="&lt;i&gt;+Núm sec día&lt;br&gt;+Asesor comercial (lookup Usuario)&lt;/i&gt;" style="text;strokeColor=#d6b656;fillColor=#fff2cc;align=left;verticalAlign=top;spacingLeft=4;spacingRight=4;overflow=hidden;rotatable=0;points=[[0,0.5],[1,0.5]];portConstraint=eastwest;whiteSpace=wrap;html=1;gradientColor=none;" vertex="1" parent="F4Bcy7MZoGlN8Kw7cCW7-14">
          <mxGeometry y="26" width="160" height="64" as="geometry" />
        </mxCell>
        <mxCell id="F4Bcy7MZoGlN8Kw7cCW7-18" style="edgeStyle=orthogonalEdgeStyle;rounded=0;orthogonalLoop=1;jettySize=auto;html=1;" edge="1" parent="1" source="F4Bcy7MZoGlN8Kw7cCW7-13" target="F4Bcy7MZoGlN8Kw7cCW7-3">
          <mxGeometry relative="1" as="geometry" />
        </mxCell>
        <mxCell id="F4Bcy7MZoGlN8Kw7cCW7-19" value="&lt;b&gt;PreValidation&lt;br&gt;(Create - Update)&lt;/b&gt;" style="edgeLabel;html=1;align=center;verticalAlign=middle;resizable=0;points=[];" vertex="1" connectable="0" parent="F4Bcy7MZoGlN8Kw7cCW7-18">
          <mxGeometry x="-0.4724" y="1" relative="1" as="geometry">
            <mxPoint x="27" y="18" as="offset" />
          </mxGeometry>
        </mxCell>
        <mxCell id="F4Bcy7MZoGlN8Kw7cCW7-31" value="&lt;font style=&quot;font-size: 14px;&quot;&gt;1. Se crearon entidades (Ranking de asesores, Historial de asignaciones)&lt;br&gt;2. Se crearon vistas y formularios para las entidades nuevas.&lt;br&gt;&lt;/font&gt;&lt;div&gt;&lt;div&gt;&lt;font style=&quot;font-size: 14px;&quot;&gt;3. Se modificó entidad Cliente potencial (agregando campos)&lt;br&gt;4. Se agregó vista para Cliente potencial y se modificó formulario para agregar campos.&lt;br&gt;5. Se creó plugin LeadCreatePlugin y se registró en Create (PostOperation)&lt;/font&gt;&lt;/div&gt;&lt;/div&gt;&lt;div&gt;&lt;font style=&quot;font-size: 14px;&quot;&gt;&lt;span style=&quot;white-space: pre;&quot;&gt;&#x9;&lt;/span&gt;El plugin calcula la posición (1 - 5) de los leads creados durante el día.&lt;br&gt;&lt;span style=&quot;white-space: pre;&quot;&gt;&#x9;&lt;/span&gt;Luego&amp;nbsp;busca en la entidad Ranking de asesores para determinar el asesor que corresponda.&lt;br&gt;&lt;span style=&quot;white-space: pre;&quot;&gt;&#x9;&lt;/span&gt;Asigna el asesor comercial y la posición en la entidad Cliente potencial.&lt;br&gt;&lt;span style=&quot;white-space: pre;&quot;&gt;&#x9;&lt;/span&gt;Genera el registro correspondiente en Historial de asignaciones (incluyendo la fecha de asignación)&lt;br&gt;&lt;/font&gt;&lt;div&gt;&lt;font style=&quot;font-size: 14px;&quot;&gt;6. Se creó plugin RankingValidatePlugin y se registró en Create y Update (PreValidation)&lt;br&gt;&lt;span style=&quot;white-space: pre;&quot;&gt;&#x9;&lt;/span&gt;El plugin realiza una serie de validaciones sobre la entidad Ranking de asesores cuando se crea, actualiza &lt;span style=&quot;white-space: pre;&quot;&gt;&#x9;&lt;/span&gt;o cuando se cambia el estado, tales como que no generen mas de 5 &lt;span style=&quot;white-space: pre;&quot;&gt;&#x9;&lt;/span&gt;registros activos y que no se solapen &lt;span style=&quot;white-space: pre;&quot;&gt;&#x9;&lt;/span&gt;los asesores en el ranking.&lt;/font&gt;&lt;br&gt;&lt;/div&gt;&lt;/div&gt;&lt;div&gt;&lt;br&gt;&lt;/div&gt;" style="shape=note;whiteSpace=wrap;html=1;backgroundOutline=1;darkOpacity=0.05;align=left;" vertex="1" parent="1">
          <mxGeometry x="114" y="440" width="606" height="320" as="geometry" />
        </mxCell>
      </root>
    </mxGraphModel>
  </diagram>
</mxfile>
